<svg height="76" viewBox="0 0 200 76" width="200" xmlns="http://www.w3.org/2000/svg"><g fill="none" fill-rule="evenodd"><path d="m0-21h200v118h-200z" fill="#d8d8d8" opacity="0"/><g fill-rule="nonzero" transform="translate(5.882353 14.294118)"><path d="m3.90265082 9.00204906h4.38575662c.25115284 0 .4531216-.20356747.45360459-.45159773 0-.00160226-.053209-3.74008154-.053209-4.77970965v-.01233743c0-.85384575.18007338-1.59825696.49369245-2.22209793l.14988673-.28015562c-.0192901.00360922-.03690145.01329975-.05023056.02763903l-8.51601352 8.40450841c-.01560204.01274829-.0267586.0300761-.03187709.04950992.17612899-.08676253.41697813-.20532997.45102866-.220231.74162538-.33303029 1.64086528-.515528 2.71736112-.515528zm34.10430288-.91513231c-.3481526-1.85477922-1.4562035-2.76887005-2.4579975-3.12825755-1.0808427-.38878904-3.2723928-.79151774-6.0260584-1.1145339-2.2153775-.25964665-4.8192367-.23897746-6.3920815-.19058913-.1888476-1.28677712-1.0956543-2.46235721-2.1104085-2.86933192-2.7037569-1.08304942-6.8809439-.82139994-7.9535759-.5222575-.8522293.23705475-1.7955819.72286078-2.3205879 1.471518-.352097.50006616-.5799055 1.14073088-.5816765 2.03575478 0 .50655533.0141676 1.69984042.0271277 2.76005761.0128797 1.06350182.0268863 2.01468503.0268863 2.02117419-.000483.9468571-.77157055 1.71746527-1.72715884 1.71866707h-4.38358318c-.93506137 0-1.64947853.1563808-2.19525299.4031292-.54657944.2469888-.93369291.579939-1.22783154.9738553-.58545983.7822245-.68712843 1.7475077-.6847135 2.7325788 0 0 .00861325.8049767.2034982 2.3630168.16204189 1.2055425 1.47568398 9.6271952 2.72339846 12.1885722.48379122.9964471.80602354 1.4115132 1.75645998 1.8508536 2.1176532.9023142 6.95467991 1.9061317 9.22173691 2.1935777 2.2629516.2881668 3.6832531.8939023 4.5296866-.872352.0028173-.0044862.1694476-.4394205.398866-1.0776017.7348636-2.2161695.8370152-4.1825463.8370152-5.6055158 0-.1447644.2133189-.1513337.2133189 0 0 1.0045386-.1928725 4.5596389 2.5055717 5.5133056 1.0651457.3759709 3.2750493.7111643 5.5203718.9730541 2.0302327.2320877 3.5035018 1.0272908 3.5035018 6.211091 0 3.1537335-.6656356 3.5862643-4.1452295 3.5862643-2.8206396 0-3.8956866.0726627-3.8956866-2.1575267 0-1.8024654 1.7912351-1.6136387 3.1188032-1.6136387.5929461 0 .1626054-.4389398.1626054-1.5509102 0-1.1062822.6951782-1.745665.0376729-1.7618479-4.5905427-.1256975-7.2917238-.0052074-7.2917238 5.7085413 0 5.1870849 1.9945722 6.1502851 8.5099761 6.1502851 5.1083846 0 6.9091182-.166395 9.0183192-6.679913.4176221-1.2858157 1.4269829-5.2097569 2.0377995-11.7983411.3864695-4.1658026-.3638496-16.7392382-.9590497-19.91267955zm-8.9048979 13.89762555c-.631102-.021951-1.2381353.0177049-1.8041952.1082328.1593051-1.2804482.6903484-2.851627 2.5715799-2.7858541 2.0824756.0713008 2.3742798 2.0301469 2.3816856 3.3569806-.878069-.3896703-1.96511-.6379408-3.1490703-.6793593z" fill="#353e4e"/><path d="m186.295081 14.300877c.777397 0 1.403931.6293686 1.403931 1.4024227 0 .7756848-.626534 1.4066782-1.403931 1.4066782-.778714 0-1.405171-.6309934-1.405171-1.4066782.000078-.7730541.626379-1.4024227 1.405171-1.4024227zm0 2.561346c.627385 0 1.141003-.5116811 1.141003-1.1589233 0-.6466232-.513773-1.1572985-1.141003-1.1572985-.628393 0-1.141856.5106753-1.141856 1.1572985 0 .6472422.513463 1.1589233 1.141856 1.1589233zm-.599196-1.9611477h.617705c.39683 0 .60268.1385013.60268.4621611 0 .2927871-.186256.4147302-.414953.4569769l.432456.6860072h-.302115l-.422232-.6730855h-.2486v.6730855h-.264709v-1.6051452zm.264709.6867809h.352919c.256111 0 .335958-.0874339.335958-.2379283 0-.1490244-.126779-.2024131-.335958-.2024131h-.352919z" fill="#7ac143"/><path d="m.04835196 15.3084154h1.95817395l.09445498-12.49659358h-2.05262893v-2.397606h12.98258084l.1582282 4.85947441h-2.5587985l-.2207162-2.46186841h-4.89704126l-.03172595 4.89068299h4.96009161v2.39896989h-4.99133564l-.03108341 5.2067802h4.92788365l.3162957-2.7782866h2.779595l-.315894 5.1757322h-13.07808004zm33.80050804-12.49659358h-1.6421996l-6.1613404 14.89395888h-3.5371627l-6.1922632-14.89395888h-1.737538v-2.397606h7.3932713v2.397606h-1.737779l4.2642892 11.73908328h.0626487l4.2334468-11.73908328h-2.0841139v-2.397606h7.1387408zm1.7054907 12.49659358h1.958174l.0950976-12.49659358h-2.0531912l-.0000804-2.397606h12.9825809l.1582282 4.85947441h-2.5583969l-.2215193-2.46186841h-4.8967201l-.031485 4.89068299h4.9600916v2.39896989h-4.990934l-.0322882 5.2067802h4.9277231l.3170185-2.7782866h2.7797557l-.3162957 5.1757322h-13.0775981zm16.6477717 0h1.958174l.0946156-12.49659358h-2.0527896v-2.397606h7.9921288c4.0130517 0 5.3068281 2.30365931 5.3068281 4.54353757 0 1.98812361-.9784445 3.78690976-4.0751383 4.57562866v.06281832c1.6109554.44141303 2.0230716.85209883 3.6337058 3.62918203 1.0728191 1.7990268 1.4520848 2.0829528 2.0532715 2.0829528.2522012 0 .5045631-.0637009.7260825-.0946687v2.4921945l-1.7696655-.0001605c-2.3380019 0-2.6204834-.2829632-4.4524764-3.9129476-1.6442878-3.2181753-2.0233929-3.4386411-3.2870495-3.4386411h-.6937141l-.0322079 4.9543839h2.0523077v2.3973653h-7.4543137v-2.3975258h.000241zm5.4660202-7.35327344h1.3574691c1.8630764 0 3.1260906-1.00926496 3.1260906-2.6179916 0-1.57799941-.7881691-2.52524832-2.3686837-2.52524832h-2.0857204zm26.0610623-5.14332014h-2.0541549v-2.397606l6.791442-.00008023v2.39768623h-1.9588165l-.0946157 14.89395888h-2.5902833l-9.2561068-12.30613292h-.0626488l-.0955794 9.90876762h2.0543157v2.3973653h-6.791924v-2.3973653h1.9587362l.0946156-12.49667382h-2.0531108v-2.39760599h5.1177574l8.7819845 11.70691201h.0631306zm14.5615695-2.74587462c5.9713056 0 8.5929136 3.94455727 8.5929136 8.7419354 0 5.4586954-3.254681 9.2444017-8.5929136 9.2444017-5.9708242 0-8.5927533-3.9437549-8.5927533-8.77049644-.0000803-5.42732635 3.2526731-9.21584066 8.5927533-9.21584066zm0 15.2103771c3.2211876 0 5.0531806-2.7461153 5.0531806-6.24845724 0-3.94303293-2.146361-6.18363324-5.0531806-6.18363324-3.2226339 0-5.0544663 2.74483165-5.0544663 6.31071398 0 3.8813378 2.1482084 6.1213765 5.0544663 6.1213765zm14.0256016.0320911h1.95721l.094455-12.49659358h-3.472747l-.129072 2.46186841h-2.61952l.187625-4.85947441h15.512867l.189311 4.85947441h-2.623134l-.126101-2.46186841h-3.474915l-.094937 12.49659358h2.052388v2.3974456h-7.453189v-2.3974456zm13.64481 0h1.958896l.09558-12.49659358h-2.054476v-2.397606h12.985311l.156702 4.85947441h-2.557994l-.221038-2.46186841h-4.896479l-.031646 4.89068299h4.957923v2.39896989h-4.98981l-.032207 5.2067802h4.927723l.317822-2.7782866h2.777988l-.314608 5.1757322h-13.079687z" fill="#353e4e" transform="translate(44.945614 13.790132)"/></g></g></svg>