<svg height="76" viewBox="0 0 200 76" width="200" xmlns="http://www.w3.org/2000/svg"><g fill="#353e4e" transform="translate(9.411765 20.176471)"><path d="m121.083447 30.4186047c2.40932.0489959 4.740248-.8568205 6.484268-2.5198359l3.217511 3.4637483c-2.125855 2.1833105-5.064295 3.8002736-9.644324 3.8002736-7.846784 0-12.91108-5.2038303-12.91108-12.246238-.065023-3.2588252 1.197495-6.4040775 3.497643-8.7135123 2.300147-2.309435 5.440287-3.584617 8.699348-3.5327258 7.789329 0 12.205198 5.9261286 11.819425 14.1504788h-18.410397c.656635 3.4145007 3.053352 5.5896033 7.247606 5.5896033zm5.614227-9.512996c-.492475-3.1846785-2.396716-5.5321476-6.213406-5.5321476-3.327145-.1943535-6.234795 2.225098-6.648427 5.5321476z"/><path d="m.18057456 30.1641587 14.17510264-14.3967168h-13.83857734v-4.5143639h20.40492474v4.6128591l-14.17510258 14.3967168h14.36388508v4.5143639h-20.93023254z"/><path d="m37.0259918 30.4186047c2.4053398.0490211 4.7327588-.8536281 6.4760602-2.511628l3.2175102 3.4637484c-2.1258549 2.1833104-5.0642955 3.8002735-9.6443228 3.8002735-7.8467853 0-12.9110807-5.2038304-12.9110807-12.246238-.0673482-3.2616815 1.1952853-6.4103794 3.4974847-8.7218681s5.4457874-3.5867912 8.7077137-3.5325779c7.7893296 0 12.2051983 5.9261286 11.8194254 14.1504788h-18.4103967c.6566347 3.4145007 3.0533515 5.5896033 7.247606 5.5896033zm5.614227-9.512996c-.492476-3.1846785-2.3967168-5.5321476-6.2134062-5.5321476-3.3271454-.1943535-6.2347947 2.225098-6.6484268 5.5321476z"/><path d="m78.7961696 22.9822161c0-7.5266757 5.6224351-12.2298221 11.8112176-12.2298221 3.0056303-.0377258 5.874464 1.2540004 7.8385773 3.5294118v-13.92065669h4.9740085v34.35020529h-5.0068403v-3.2831738c-1.9278172 2.3734234-4.8301996 3.74156-7.8878249 3.7181942-3.1760843-.0341236-6.2057699-1.34075-8.4104731-3.6272232-2.2047032-2.286473-3.4001785-5.3617141-3.3186651-8.5369355m19.9370725-.0492475c-.1081394-4.098816-3.5002383-7.3441638-7.5998285-7.2710399-4.0995901.0731239-7.3737943 3.4373778-7.3356912 7.5374429.038103 4.1000652 3.3742663 7.4028871 7.4745074 7.3998076 2.01628.0053399 3.9484957-.8073933 5.3547568-2.2523304 1.406261-1.444937 2.1662843-3.398487 2.1062555-5.4138802"/><path d="m135.512996 29.7127224 4.530779-2.3556772c1.223591 2.1775024 3.552421 3.4983314 6.049249 3.4309164 2.831737 0 4.300957-1.4528043 4.300957-3.1025991 0-1.879617-2.74145-2.3064296-5.745554-2.9138166-4.01368-.8207935-8.207934-2.1668947-8.207934-7.009576 0-3.7181943 3.537619-7.1491108 9.119014-7.1080711 4.391246 0 7.649795 1.740082 9.49658 4.5636114l-4.202462 2.3064296c-1.180894-1.751031-3.183709-2.7664112-5.294118-2.6839945-2.692202 0-4.062927 1.3214774-4.062927 2.8235294 0 1.6908345 2.175102 2.1668947 5.573187 2.9138167 3.874146.8207934 8.265391 2.1176471 8.265391 7.0095759 0 3.2831738-2.831738 7.6251711-9.545829 7.5759234-4.92476 0-8.363884-1.9781122-10.341996-5.4582763"/><path d="m168.99316 24.2626539-3.964432 4.3255814v6.1149111h-5.00684v-34.34199729h5.00684v22.48974009l10.629274-11.6716826h6.098496l-9.21751 10.0711354 9.45554 13.4528044h-5.671682z"/><path d="m63.6525308 10.6703146c-5.9507524 0-10.9329686 3.8577292-10.9329686 10.259918v13.740082h5.1053352v-13.132695c0-3.857729 2.2161422-6.1641585 6-6.1641585s5.6716826 2.3064295 5.6716826 6.1641585v13.132695h5.1053352v-13.7072502c0-6.4021889-4.9822161-10.259918-10.9329685-10.259918"/></g></svg>