<svg height="76" viewBox="0 0 200 76" width="200" xmlns="http://www.w3.org/2000/svg"><g fill="none" fill-rule="evenodd"><path d="m0-21h200v118h-200z" fill="#d8d8d8" opacity="0"/><g fill="#353e4e" fill-rule="nonzero" transform="translate(3.529412 19)"><path d="m22.5087074 7.18363003-11.2543537 7.18363007 11.2543537 7.18363-11.2543537 7.18363-11.2543537-7.2434936 11.2543537-7.18363-11.2543537-7.12376647 11.2543537-7.18363003zm-11.3142173 23.82570627 11.2543537-7.18363 11.2543538 7.18363-11.2543538 7.18363zm11.3142173-9.5183098 11.2543537-7.18363-11.2543537-7.12376647 11.1944902-7.18363003 11.2543537 7.18363003-11.2543537 7.18363007 11.2543537 7.18363-11.2543537 7.18363z"/><path d="m53.7574981 7.18363003h9.0992647c5.8067676 0 10.5958543 3.35236067 10.5958543 11.01489937v1.6163168c0 7.7224023-4.4897688 11.1944901-10.4162636 11.1944901h-9.2788554zm5.0884046 4.31017797v15.1454867h3.8911329c3.2924971 0 5.5074497-2.155089 5.5074497-6.9441757v-1.2571353c0-4.7890866-2.3346798-6.9441757-5.6870404-6.9441757zm17.3005756.2394544h4.0707237l.6584994 4.4897688c.7782266-3.0530428 2.7537249-4.6693596 6.3455399-4.6693596h1.2571352v5.1482682h-2.0952254c-4.1305872 0-5.1482682 1.436726-5.1482682 5.5074497v8.8598104h-5.028541v-19.3359375zm13.3495792 10.057082v-.5387722c0-6.4652671 4.1305872-9.9972185 9.7577641-9.9972185 5.7469044 0 9.7577644 3.5319514 9.7577644 9.9972185v.5387722c0 6.3455399-3.891133 9.7577642-9.7577644 9.7577642-6.2258127-.0598636-9.7577641-3.4122243-9.7577641-9.7577642zm14.3672605-.0598636v-.4789086c0-3.591815-1.795908-5.746904-4.66936-5.746904-2.8135884 0-4.6693595 1.9754982-4.6693595 5.746904v.4789086c0 3.4720879 1.7959075 5.4475862 4.6693595 5.4475862 2.873452-.0598636 4.66936-1.9754983 4.66936-5.4475862zm7.782265-9.9972184h4.190451l.478909 3.6516786c1.017681-2.4544069 3.17277-4.1305873 6.34554-4.1305873 4.908814 0 8.141447 3.5319514 8.141447 10.0570821v.5387722c0 6.3455399-3.591815 9.6979006-8.141447 9.6979006-3.053043 0-5.148268-1.3768625-6.165949-3.5918151v9.7577642h-4.908814zm14.067943 9.9972184v-.419045c0-3.8312694-1.975499-5.7469041-4.609496-5.7469041-2.813589 0-4.66936 2.155089-4.66936 5.7469041v.3591815c0 3.4122242 1.795908 5.5673132 4.609496 5.5673132 2.873452-.0598635 4.66936-1.9156346 4.66936-5.5074497zm12.511489 5.7469041-.419046 3.5319514h-4.310178v-25.74134094h4.908814v9.87749124c1.077545-2.5142705 3.232634-3.8911329 6.285677-3.8911329 4.609495.0598636 8.02172 3.2326335 8.02172 9.638037v.5986358c0 6.4054035-3.232634 10.0570821-8.141448 10.0570821-3.232633-.0598636-5.327859-1.5564532-6.345539-4.0707237zm9.338719-5.9863584v-.4789087c0-3.5319514-1.915635-5.5074496-4.609496-5.5074496-2.753725 0-4.66936 2.2149525-4.66936 5.5673132v.4190451c0 3.591815 1.855771 5.6870405 4.609496 5.6870405 2.933316 0 4.66936-1.8557711 4.66936-5.6870405zm7.303357.2993179v-.5387722c0-6.4652671 4.130587-9.9972185 9.757764-9.9972185 5.746904 0 9.757764 3.5319514 9.757764 9.9972185v.5387722c0 6.3455399-3.950997 9.7577642-9.757764 9.7577642-6.225813-.0598636-9.757764-3.4122243-9.757764-9.7577642zm14.427123-.0598636v-.4789086c0-3.591815-1.795907-5.746904-4.669359-5.746904-2.813589 0-4.66936 1.9754982-4.66936 5.746904v.4789086c0 3.4720879 1.795908 5.4475862 4.66936 5.4475862 2.873452-.0598636 4.669359-1.9754983 4.669359-5.4475862zm11.673399-.718363-6.764585-9.2788554h5.806768l3.891133 5.8067676 3.950996-5.8067676h5.746904l-6.884312 9.2189919 7.243494 10.057082h-5.687041l-4.429905-6.4054034-4.310178 6.4054034h-5.926495z"/></g></g></svg>