<?xml version="1.0" encoding="UTF-8"?>
<svg width="200px" height="76px" viewBox="0 0 200 76" version="1.1" xmlns="http://www.w3.org/2000/svg" xmlns:xlink="http://www.w3.org/1999/xlink">
    <!-- Generator: Sketch 49.2 (51160) - http://www.bohemiancoding.com/sketch -->
    <title>Slice</title>
    <desc>Created with Sketch.</desc>
    <defs>
        <polygon id="path-1" points="0 0.236080301 193.773162 0.236080301 193.773162 44.5484498 0 44.5484498"></polygon>
        <polygon id="path-3" points="0 0.236080301 193.773162 0.236080301 193.773162 44.5484498 0 44.5484498"></polygon>
    </defs>
    <g id="Page-1" stroke="none" stroke-width="1" fill="none" fill-rule="evenodd">
        <g id="Group-9" transform="translate(0.000000, -21.000000)">
            <g id="Group-3">
                <g id="Rectangle" opacity="0" fill="#D8D8D8">
                    <rect x="0" y="0" width="200" height="118"></rect>
                </g>
                <g id="logo-2" transform="translate(3.529412, 36.470588)">
                    <g id="Fill-1-Clipped">
                        <mask id="mask-2" fill="white">
                            <use xlink:href="#path-1"></use>
                        </mask>
                        <g id="path-1"></g>
                        <path d="M186.898736,21.5821317 C185.51681,21.5821317 184.425221,22.4492666 183.397254,23.7659553 L183.397254,30.4156043 C184.328335,30.865481 185.067579,31.0905808 186.384267,31.0905808 C188.375933,31.0905808 189.886394,29.4519058 189.886394,26.0469883 C189.886394,23.0593292 188.633328,21.5821317 186.898736,21.5821317 Z M186.994976,34.1744807 C185.51681,34.1744807 184.328335,33.9177312 183.397254,33.5637722 L183.397254,39.4105544 L179.542137,39.9889673 L179.542137,18.4982319 L182.818518,18.4982319 L183.172478,20.6181103 C184.264067,19.3653668 185.774528,18.1765685 187.926702,18.1765685 C191.171111,18.1765685 193.773162,20.6181103 193.773162,25.8218885 C193.773162,31.6047256 190.560403,34.1744807 186.994976,34.1744807 Z M172.509141,34.013649 L172.509141,23.8628418 C172.509141,22.5135347 172.026646,21.5821317 170.614039,21.5821317 C169.425241,21.5821317 168.300387,22.352703 167.176181,23.5092058 L167.176181,34.013649 L163.321386,34.013649 L163.321386,23.8628418 C163.321386,22.5135347 162.807564,21.5821317 161.393989,21.5821317 C160.205514,21.5821317 159.081306,22.352703 157.957099,23.5092058 L157.957099,34.013649 L154.102305,34.013649 L154.102305,18.4982319 L157.378364,18.4982319 L157.732322,20.6823784 C159.177547,19.3010987 160.751631,18.1765685 162.839537,18.1765685 C165.055979,18.1765685 166.244455,19.1725625 166.823191,20.6823784 C168.204146,19.3010987 169.90709,18.1765685 171.994996,18.1765685 C174.918064,18.1765685 176.363611,19.9434567 176.363611,22.8348752 L176.363611,34.013649 L172.509141,34.013649 Z M147.036044,26.2717652 C142.571188,26.8178826 141.510602,28.1352172 141.510602,29.6124145 C141.510602,30.7375907 142.217228,31.4115984 143.405703,31.4115984 C144.723038,31.4115984 145.976104,30.8012129 147.036044,29.7412737 L147.036044,26.2717652 Z M147.582161,34.013649 L147.26082,31.9896883 C146.008077,33.3070228 144.402021,34.3349894 142.088692,34.3349894 C139.454669,34.3349894 137.688104,32.7289328 137.688104,30.0306416 C137.688104,26.2717652 140.772003,24.6334131 147.036044,24.0233506 L147.036044,23.5734739 C147.036044,21.9031493 146.072345,21.2604683 144.369402,21.2604683 C142.571188,21.2604683 140.868244,21.7742902 139.197919,22.5135347 L138.71607,19.4296349 C140.515254,18.7226858 142.410355,18.1765685 144.88387,18.1765685 C148.899496,18.1765685 150.890838,19.6544118 150.890838,23.3809926 L150.890838,34.013649 L147.582161,34.013649 Z M131.617836,34.3030169 C127.312842,34.3030169 124.261561,31.4115984 124.261561,26.3363563 C124.261561,20.9391278 127.634183,18.1765685 131.74605,18.1765685 C133.834278,18.1765685 135.376066,18.7226858 136.59716,19.493903 L136.051043,22.9630885 C134.733708,21.9670945 133.480642,21.5175408 131.970826,21.5175408 C129.754385,21.5175408 128.148328,23.1562158 128.148328,26.2401156 C128.148328,29.4519058 129.883243,30.9943401 132.227576,30.9943401 C133.576883,30.9943401 134.797977,30.6403812 136.243525,29.5164968 L136.757669,32.7935239 C135.183586,33.8851128 133.576883,34.3030169 131.617836,34.3030169 Z M115.831137,20.8432101 C114.289026,20.8432101 113.035959,22.0636581 112.747236,24.6014406 L118.915036,24.6014406 C118.658287,22.1921943 117.693942,20.8432101 115.831137,20.8432101 Z M122.641294,27.0103639 L112.682969,27.0103639 C112.87545,30.0306416 114.482153,31.3473302 116.859104,31.3473302 C118.850769,31.3473302 120.489444,30.6087316 122.191418,29.4202562 L122.641294,32.4395649 C120.97097,33.5963907 118.947009,34.3349894 116.441199,34.3349894 C112.104879,34.3349894 108.86047,31.861475 108.86047,26.2717652 C108.86047,21.2284957 111.880102,18.1765685 115.927378,18.1765685 C120.585361,18.1765685 122.673267,21.6783725 122.673267,26.0792839 C122.673267,26.4006243 122.641294,26.786233 122.641294,27.0103639 Z M101.05561,34.3030169 C98.8068727,34.3030169 96.4941901,33.5963907 95.0163468,32.7935239 L95.5301686,29.5807649 C97.2004933,30.6729997 99.2564264,31.4115984 101.184146,31.4115984 C102.854794,31.4115984 103.753902,30.8012129 103.753902,29.8058647 C103.753902,28.713307 103.079248,28.2634304 100.606056,27.6536908 C96.8475031,26.6893464 95.2734191,25.5977576 95.2734191,22.7706071 C95.2734191,20.1039655 97.3932975,18.208864 100.991342,18.208864 C103.015303,18.208864 104.878432,18.5944726 106.420543,19.3010987 L105.906075,22.5135347 C104.36461,21.6460769 102.53313,21.0999595 100.991342,21.0999595 C99.5457944,21.0999595 98.8391683,21.6460769 98.8391683,22.5135347 C98.8391683,23.3486971 99.4175807,23.7985738 101.730264,24.4089593 C105.745566,25.4369259 107.319651,26.5288377 107.319651,29.4519058 C107.319651,32.504156 105.135504,34.3030169 101.05561,34.3030169 Z M88.7529523,26.2717652 C84.2880957,26.8178826 83.2278335,28.1352172 83.2278335,29.6124145 C83.2278335,30.7375907 83.9347827,31.4115984 85.123258,31.4115984 C86.4402696,31.4115984 87.6933361,30.8012129 88.7529523,29.7412737 L88.7529523,26.2717652 Z M89.2990696,34.013649 L88.9780521,31.9896883 C87.7249857,33.3070228 86.1189291,34.3349894 83.8059235,34.3349894 C81.1719002,34.3349894 79.405012,32.7289328 79.405012,30.0306416 C79.405012,26.2717652 82.4889118,24.6334131 88.7529523,24.0233506 L88.7529523,23.5734739 C88.7529523,21.9031493 87.7895767,21.2604683 86.0869565,21.2604683 C84.2880957,21.2604683 82.5851526,21.7742902 80.9148279,22.5135347 L80.4329786,19.4296349 C82.2321624,18.7226858 84.127264,18.1765685 86.6007784,18.1765685 C90.6164042,18.1765685 92.6080694,19.6544118 92.6080694,23.3809926 L92.6080694,34.013649 L89.2990696,34.013649 Z M69.38371,23.9910552 L67.1669451,23.9910552 L67.1669451,30.7692403 L69.4476552,30.7692403 C72.1459464,30.7692403 73.7203534,29.645033 73.7203534,27.428591 C73.7203534,25.1795306 72.2105375,23.9910552 69.38371,23.9910552 Z M69.3194419,15.0926686 L67.1669451,15.0926686 L67.1669451,20.9714233 L69.1266376,20.9714233 C71.6321246,20.9714233 72.9494591,19.847216 72.9494591,17.9521146 C72.9494591,16.1849033 71.8891969,15.0926686 69.3194419,15.0926686 Z M69.4476552,34.013649 L63.0870511,34.013649 L63.0870511,11.84826 L69.5442188,11.84826 C74.5235432,11.84826 76.9008168,14.0969975 76.9008168,17.5984785 C76.9008168,19.9111612 75.6154549,21.4213 73.6880578,22.2244898 C76.1615722,22.995707 77.7999243,24.6014406 77.7999243,27.5568042 C77.7999243,31.9260661 74.6520793,34.013649 69.4476552,34.013649 Z" id="Fill-1" fill="#353E4E" fill-rule="nonzero" mask="url(#mask-2)"></path>
                    </g>
                    <g id="Fill-3-Clipped">
                        <mask id="mask-4" fill="white">
                            <use xlink:href="#path-3"></use>
                        </mask>
                        <g id="path-1"></g>
                        <path d="M32.0930339,34.6453494 C32.3016631,34.2432701 32.1450297,33.7514093 31.7445652,33.5398736 C31.3441007,33.327692 30.8464266,33.4820645 30.6313384,33.8805913 C30.5870936,33.962945 29.5100378,35.9000307 26.6618952,35.9000307 C23.8625189,35.9000307 22.59169,33.927097 22.533235,33.8340858 C22.2961859,33.4478313 21.7907609,33.3254313 21.4025686,33.5608656 C21.0134075,33.7972689 20.8893927,34.3046316 21.125796,34.6937927 C21.1965232,34.8103796 22.9030188,37.5496861 26.6618952,37.5496861 C30.5431716,37.5496861 32.0313495,34.7638741 32.0930339,34.6453494 Z M32.5755291,29.3039923 C32.5755291,30.7840963 33.7756309,31.984521 35.2560579,31.984521 C36.7361619,31.984521 37.9365866,30.7840963 37.9365866,29.3039923 C37.9365866,27.8238883 36.7361619,26.6234635 35.2560579,26.6234635 C33.7756309,26.6234635 32.5755291,27.8238883 32.5755291,29.3039923 Z M15.2551151,29.3039923 C15.2551151,27.8238883 16.4555398,26.6234635 17.9356438,26.6234635 C19.4157478,26.6234635 20.6161726,27.8238883 20.6161726,29.3039923 C20.6161726,30.7840963 19.4157478,31.984521 17.9356438,31.984521 C16.4555398,31.984521 15.2551151,30.7840963 15.2551151,29.3039923 Z M27.0139165,40.973012 C5.85194947,40.973012 3.82895767,32.0055131 3.82895767,32.0055131 C3.82895767,32.0055131 8.72076113,17.3343011 13.710743,17.3058811 C17.3740246,17.2855349 18.922918,22.5183791 21.9025034,22.5183791 C24.8814428,22.5183791 31.3754273,11.0202026 33.6984446,11.0202026 C36.0227536,11.0202026 40.0293367,15.3093716 43.1720145,19.3621372 C47.6891898,25.1882503 49.867846,32.1527807 49.867846,32.1527807 C49.867846,32.1527807 48.1762064,40.973012 27.0139165,40.973012 Z M26.5966582,0.236080301 C12.2781134,0.236080301 1.06123102,18.4520493 0,33.8382842 C4.4923078,41.6360392 15.3274571,44.5678271 26.5966582,44.5678271 C37.8648905,44.5678271 48.7003628,41.6360392 53.1913787,33.8382842 C52.1301477,18.4520493 40.9139112,0.236080301 26.5966582,0.236080301 Z" id="Fill-3" fill="#353E4E" fill-rule="nonzero" mask="url(#mask-4)"></path>
                    </g>
                </g>
            </g>
        </g>
    </g>
</svg>