<svg height="80" viewBox="0 0 80 80" width="80" xmlns="http://www.w3.org/2000/svg"><g style="stroke:#4eb8e7;stroke-width:2.5;fill:none;fill-rule:evenodd;stroke-linecap:round;stroke-linejoin:round"><path d="m48.7571798 27.9423319-2.1875.90875c-.60375.2475-1.29375-.03625-1.54375-.63875l-.9025-2.18125c-.24875-.6025.03625-1.29375.63875-1.5425l2.18625-.905c-.29875-1.495-.30625-3.07375-.0075-4.62125l-2.44875-1.015c-.6125-.2525-.905-.95625-.65-1.57l.92125-2.22375c.25375-.61375.95625-.905 1.57-.65l2.44875 1.01375c.88375-1.3125 2.00125-2.4125 3.2725-3.26375l-.905-2.18500002c-.24875-.60125.03625-1.2925.6375-1.5425l2.1825-.9025c.60125-.24875 1.29125.03625 1.54125.63875l.905 2.185c1.50125-.3 3.06875-.3125 4.62375-.00875l1.01125-2.445c.255-.615.95875-.90625 1.57125-.65125l2.22375.92c.61375.255.905.9575.65 1.57125l-1.01125 2.44500002c1.3125.88375 2.41 2.005 3.26 3.27625l2.185-.90625c.60375-.24875 1.29375.03625 1.54375.63875l.9025 2.18125c.24875.6025-.035 1.2925-.63875 1.5425l-2.18625.905c.29625 1.495.30625 3.07375.0075 4.62125l2.44875 1.015c.6125.25375.90625.95625.65 1.57l-.92125 2.22375c-.25375.615-.95625.905-1.57.65l-2.44875-1.01375c-.88375 1.3125-2 2.41375-3.27125 3.26375l.90375 2.185c.25.6025-.03625 1.29125-.6375 1.54125l-2.1825.90375c-.6.25-1.29125-.03625-1.54125-.63875l-.90625-2.1875c-1.4925.29875-3.07.30625-4.6175.005l-1.01625 2.45125c-.25375.615-.9575.90625-1.57125.6525l-2.2225-.92125c-.615-.255-.905-.9575-.65125-1.57125l1.015-2.45125c-1.31375-.88375-2.41375-2-3.26125-3.2725z"/><path d="m17.325 67.74375c-.69875.7-1.83375.7-2.535 0l-2.53375-2.53375c-.70125-.7025-.70125-1.83625 0-2.53625l2.54125-2.54125c-1.28625-1.925-2.21625-4.0375-2.695-6.3825h-4.02625c-1.00875 0-1.82625-.9125-1.82625-1.92375v-3.65375c0-1.01.8175-1.9225 1.82625-1.9225h4.02625c.4775-2.355 1.40375-4.4525 2.69375-6.38375l-2.54-2.54125c-.70125-.69875-.70125-1.835 0-2.535l2.53375-2.535c.70125-.7 1.835-.7 2.53375 0l2.5425 2.54c1.93125-1.29125 4.0275-2.22125 6.38375-2.7v-4.01875c0-1.01.91375-1.82625 1.92375-1.82625h3.6525c1.01 0 1.92375.81625 1.92375 1.82625v4.01875c2.35625.47875 4.45125 1.4125 6.38375 2.7l2.54125-2.54c.69875-.7 1.83375-.7 2.535 0l2.53375 2.535c.70125.70125.70125 1.835 0 2.535l-2.54125 2.54125c1.28375 1.925 2.21625 4.04 2.695 6.38375h4.02625c1.00875 0 1.82625.9125 1.82625 1.9225v3.65375c0 1.01125-.8175 1.92375-1.82625 1.92375h-4.02625c-.4775 2.355-1.40125 4.45375-2.6925 6.3825l2.53875 2.54125c.70125.7.70125 1.83375 0 2.53375l-2.53375 2.53625c-.70125.7-1.83625.7-2.535 0l-2.54375-2.54375c-1.92375 1.28625-4.035 2.2125-6.38125 2.69375v4.02875c0 1.01-.91375 1.8275-1.92375 1.8275h-3.6525c-1.01 0-1.92375-.8175-1.92375-1.8275v-4.02875c-2.35625-.4775-4.45125-1.40375-6.38125-2.69375z" fill="#4eb8e7" fill-opacity=".2"/><path d="m38.75 50c0 4.8325-3.9175 8.75-8.75 8.75s-8.75-3.9175-8.75-8.75c0-4.83375 3.9175-8.75 8.75-8.75s8.75 3.91625 8.75 8.75z" fill="#fff"/><path d="m63.75 21.25c0 2.76125-2.23875 5-5 5s-5-2.23875-5-5 2.23875-5 5-5 5 2.23875 5 5z"/></g></svg>