<svg height="33" viewBox="0 0 44 33" width="44" xmlns="http://www.w3.org/2000/svg"><path d="m14.1105475 27.2264426c8.4843575 4.1544986 18.5745849-1.4041781 19.7564898-11.1777248m-.7103288-5.2510691c-.7525335-3.04031955-2.4274656-5.57933948-4.6268167-7.41096987-3.2966723-2.74546914-7.672005-3.80915876-11.9024118-2.69731562-5.6512389 1.4848532-9.54749638 6.42148701-10.14167521 12.06281519-.5123855 4.8617084 1.42606408 9.5471533 5.14478301 12.53339 7.2836174-2.3972545 15.9749871-7.3046009 21.8681179-12.387492-.0669693-.6985854-.1682954-1.3995065-.3419972-2.1004277zm-1.3575251-8.31223121c8.511215-1.89523615 10.3854856 1.65662471 4.2141876 8.04882431-.7415463.7683001-1.5818028 1.5594193-2.5146653 2.3638346m-29.50768465 5.2458584c-6.29494715 6.4852725-4.33312805 10.0687565 4.36068316 8.0669717 1.0261662-.2360959 2.12348739-.5451409 3.27870919-.9253381" fill="none" stroke="#16a2e0" stroke-opacity=".759681" stroke-width="3" transform="translate(2 2)"/></svg>