<svg height="60" viewBox="0 0 180 60" width="180" xmlns="http://www.w3.org/2000/svg"><g fill="none"><path d="m165.2025 0h-150.9c-.5505 0-1.095 0-1.6425.003-.459.003-.915.012-1.3785.0195-1.0072141.01099844-2.01212478.09875262-3.006.2625-.99191147.16831047-1.95273495.48538222-2.85.9405-.89743218.45952994-1.71736524 1.05676514-2.43 1.77-.71511681.70998498-1.3112466 1.53048648-1.7655 2.43-.4558826.89827192-.77202131 1.86085107-.9375 2.8545-.16690805.9925652-.25667659 1.9965686-.2685 3.003-.015.4605-.015.9225-.0225 1.3815v34.6755c.0075.465.009.915.0225 1.3815.01231319 1.0064706.10258329 2.0104748.27 3.003.16441173.9946691.480065 1.958322.936 2.8575.45468468.8960556 1.05140001 1.7126133 1.767 2.418.70912615.7156052 1.5285559 1.3127052 2.427 1.7685.89778859.4560786 1.85902414.7746364 2.8515.945.99397044.1633908 1.9987784.2521389 3.006.2655.465.0105.9195.0165 1.3785.0165.549.003 1.092.003 1.6425.003h150.9c.54 0 1.086 0 1.626-.003.456 0 .9255-.006 1.383-.015 1.005306-.0131595 2.008172-.1024146 3-.267.995511-.1716228 1.960026-.4900947 2.862-.945.897871-.4559979 1.716777-1.0530841 2.4255-1.7685.714348-.70899 1.312666-1.5259844 1.773-2.421.452989-.8997496.76609-1.8633306.9285-2.8575.16698-.9927153.259737-1.9964958.2775-3.003.006-.465.006-.915.006-1.3815.012-.546.012-1.0875.012-1.641v-31.392c0-.549 0-1.095-.012-1.638 0-.459 0-.921-.006-1.38-.017694-1.0070052-.110451-2.01128944-.2775-3.0045-.163497-.99314484-.477081-1.95564918-.93-2.8545-.925533-1.80432776-2.393334-3.27317745-4.197-4.2-.901917-.45409118-1.866536-.77108049-2.862-.9405-.991733-.16494347-1.994703-.25320485-3-.264-.4575-.0075-.927-.0165-1.383-.0195-.54-.003-1.0875-.003-1.626-.003z" fill="#a6a6a6"/><path d="m12.6675 58.6875c-.4575 0-.903-.006-1.356-.015-.9397919-.012621-1.87735757-.0948459-2.805-.246-.86424072-.149066-1.70143793-.4261095-2.484-.822-.77567048-.3923985-1.48320074-.906966-2.0955-1.524-.62090039-.6103571-1.13773032-1.3182114-1.53-2.0955-.39740352-.7819378-.67259925-1.6201719-.816-2.4855-.15405935-.9298473-.23729857-1.8700494-.249-2.8125-.0105-.315-.0225-1.3695-.0225-1.3695v-34.65s.0135-1.038.0225-1.3425c.01117896-.9409217.09391766-1.87962987.2475-2.808.14341722-.86771558.41859342-1.70841933.816-2.493.39106552-.77654769.90521014-1.4846996 1.5225-2.097.61643481-.61833497 1.32606262-1.13613043 2.103-1.5345.78096093-.3946622 1.61679249-.6697332 2.4795-.816.93054072-.15215658 1.871173-.23438669 2.814-.246l1.353-.018h154.1535l1.3695.0195c.933787.0108367 1.865428.09206696 2.787.243.871666.14807719 1.716429.42511456 2.5065.822 1.556728.8023179 2.823403 2.071616 3.6225 3.63.390691.77931872.661252 1.61325202.8025 2.4735.155769.9358908.243001 1.8819054.261 2.8305.0045.4245.0045.882.0045 1.335.012.5625.012 1.098.012 1.638v31.3935c0 .5445 0 1.077-.012 1.6125 0 .4875 0 .9345-.006 1.395-.017087.9314797-.102314 1.8604605-.255 2.7795-.139965.8715918-.41316 1.7164696-.81 2.505-.395502.7688362-.909825 1.4704615-1.524 2.079-.613109.6204867-1.322198 1.1381217-2.1 1.533-.787838.3990876-1.631301.6772085-2.502.825-.927086.1513773-1.864206.2331058-2.8035.2445-.4395.0105-.9.0165-1.3455.0165l-1.626.003z" fill="#000"/><path d="m37.1535 30.45c.0332005-2.5439578 1.3668595-4.893711 3.534-6.2265-1.3734798-1.9617999-3.5913869-3.1613597-5.985-3.237-2.52-.264-4.962 1.5075-6.246 1.5075-1.308 0-3.285-1.482-5.412-1.437-2.8001274.0903754-5.3473266 1.6438651-6.7095 4.092-2.901 5.022-.7365 12.4035 2.0415 16.464 1.3905 1.9875 3.015 4.2075 5.142 4.1295 2.0805-.087 2.8575-1.3275 5.37-1.3275 2.487 0 3.216 1.3275 5.385 1.278 2.2335-.0375 3.639-1.998 4.98-4.005.9997254-1.4161523 1.769228-2.9814825 2.28-4.638-2.6524916-1.121313-4.3772307-3.7202351-4.38-6.6zm-4.098-12.135c1.2173841-1.4609289 1.8173527-3.3388579 1.6725-5.235-1.8600768.1952644-3.5782485 1.0843432-4.812 2.49-1.2179367 1.3858441-1.8352326 3.1988815-1.716 5.04 1.8846628.0194371 3.6741756-.8263938 4.8555-2.295zm30.3975 22.395h-7.098l-1.7055 5.034h-3.0075l6.726-18.627h3.1245l6.7245 18.627h-3.0585zm-6.3645-2.325h5.628l-2.775-8.169h-.0765zm25.6515.57c0 4.2195-2.259 6.93-5.6685 6.93-1.7612041.091833-3.4201683-.8302668-4.272-2.3745h-.0645v6.726h-2.79v-18.0735h2.7v2.259h.0495c.8895826-1.5352865 2.5510367-2.4573561 4.3245-2.4 3.447 0 5.7195 2.724 5.7195 6.933zm-2.865 0c0-2.7495-1.422-4.557-3.5895-4.557-2.13 0-3.5625 1.845-3.5625 4.557 0 2.736 1.4325 4.569 3.5625 4.569 2.1675 0 3.5895-1.7955 3.5895-4.569zm17.8125 0c0 4.2195-2.259 6.93-5.6685 6.93-1.7612042.091833-3.4201683-.8302668-4.272-2.3745h-.0645v6.726h-2.7885v-18.0735h2.6985v2.259h.051c.8895826-1.5352865 2.5510367-2.4573561 4.3245-2.4 3.447 0 5.7195 2.724 5.7195 6.933zm-2.865 0c0-2.7495-1.422-4.557-3.5895-4.557-2.13 0-3.5625 1.845-3.5625 4.557 0 2.736 1.4325 4.569 3.5625 4.569 2.1675 0 3.588-1.7955 3.588-4.569zm12.7425 1.599c.207 1.848 2.001 3.06 4.455 3.06 2.349 0 4.0395-1.212 4.0395-2.8785 0-1.446-1.02-2.31-3.435-2.904l-2.4135-.582c-3.42-.825-5.0085-2.4255-5.0085-5.022 0-3.213 2.8005-5.421 6.7785-5.421 3.936 0 6.6345 2.208 6.7245 5.421h-2.814c-.168-1.8585-1.704-2.9805-3.951-2.9805s-3.7815 1.1355-3.7815 2.787c0 1.317.981 2.0925 3.3825 2.685l2.052.504c3.822.9045 5.409 2.439 5.409 5.1645 0 3.4845-2.775 5.667-7.1895 5.667-4.131 0-6.921-2.13-7.101-5.5005zm17.454-11.604v3.213h2.583v2.208h-2.583v7.4865c0 1.164.5175 1.7055 1.653 1.7055.306422-.0053647.612347-.0268947.9165-.0645v2.1945c-.510292.0953712-1.028961.1385936-1.548.129-2.7495 0-3.822-1.0335-3.822-3.6675v-7.7835h-1.974v-2.208h1.974v-3.213zm4.0785 10.005c0-4.2735 2.517-6.9585 6.441-6.9585 3.9375 0 6.4425 2.685 6.4425 6.9585 0 4.284-2.4915 6.957-6.4425 6.957-3.9495 0-6.441-2.673-6.441-6.957zm10.0425 0c0-2.931-1.3425-4.662-3.6015-4.662s-3.6 1.743-3.6 4.662c0 2.943 1.341 4.659 3.6 4.659s3.6015-1.716 3.6015-4.659zm5.139-6.792h2.6595v2.3115h.0645c.371429-1.4869563 1.733944-2.5102506 3.2655-2.4525.321367-.0013224.64187.0333945.9555.1035v2.607c-.405579-.1237712-.828641-.1805172-1.2525-.168-.819596-.033277-1.612802.2932942-2.171387.8939828-.558586.6006884-.826757 1.4154947-.734113 2.2305172v8.055h-2.787zm19.797 9.5925c-.375 2.4645-2.775 4.1565-5.847 4.1565-3.951 0-6.4035-2.646-6.4035-6.8925 0-4.26 2.466-7.023 6.285-7.023 3.759 0 6.12 2.58 6.12 6.699v.9555h-9.591v.168c-.089366 1.0110576.25993 2.0117837.959041 2.7476289.69911.7358454 1.680653 1.1358879 2.694959 1.0983711 1.352202.1264514 2.626969-.6499986 3.135-1.9095zm-9.423024-4.053h6.789024c.050773-.9083816-.279714-1.7967621-.91184-2.4510965-.632124-.6543344-1.508568-1.0152918-2.41816-.9959035-.91701-.0056046-1.798255.3553742-2.447817 1.0026822-.649561.6473079-1.013601 1.5272944-1.011207 2.4443178zm-97.913976-24.606c1.1835083-.0849146 2.3427272.3653449 3.1586258 1.2268619.8158987.861517 1.2024882 2.0434945 1.0533742 3.2206381 0 2.859-1.545 4.503-4.212 4.503h-3.2325v-8.952zm-1.842 7.6845h1.6875c.8455181.0501214 1.6686366-.2832719 2.2409506-.9076673.5723139-.6243954.832937-1.4733658.7095494-2.3113327.1145784-.8345526-.1497276-1.6766495-.7206519-2.2960458-.5709242-.6193962-1.3887426-.9512969-2.2298481-.9049542h-1.6875zm7.623-2.115c-.1113484-1.2082742.470382-2.3755623 1.5021376-3.0141585 1.0317559-.6385962 2.335969-.6385962 3.3677248 0 1.0317556.6385962 1.6134861 1.8058843 1.5021376 3.0141585.1208368 1.2136117-.4584701 2.3904379-1.493939 3.0348442-1.0354687.6444063-2.3471533.6444063-3.382622 0-1.0354689-.6444063-1.6147759-1.8212325-1.493939-3.0348442zm5.001 0c0-1.464-.6585-2.3205-1.812-2.3205-1.1595 0-1.8105.8565-1.8105 2.3205 0 1.476.651 2.325 1.8105 2.325 1.155 0 1.812-.855 1.812-2.325zm9.8385 3.381h-1.383l-1.395-4.9755h-.105l-1.3905 4.9755h-1.3695l-1.863-6.7545h1.353l1.209 5.154h.1005l1.389-5.154h1.278l1.389 5.154h.105l1.2045-5.154h1.3335zm3.4215-6.7545h1.2825v1.0725h.099c.3465676-.7899995 1.156179-1.2731157 2.016-1.203.6658189-.0500117 1.3182612.2054062 1.7731653.6941581.4549039.4887519.6629208 1.1578172.5653347 1.8183419v4.3725h-1.3335v-4.038c0-1.086-.471-1.626-1.458-1.626-.4514594-.0209031-.8895449.1563394-1.1994615.4852834-.3099165.3289442-.4607727.7768014-.4130385 1.2262166v3.9525h-1.332zm7.86-2.637h1.332v9.39h-1.332zm3.186 6.0105c-.1145755-1.209918.4662379-2.3802875 1.499103-3.0207708 1.032865-.6404834 2.339429-.6404834 3.372294 0 1.032865.6404833 1.6136785 1.8108528 1.499103 3.0207708.1208369 1.2136117-.45847 2.3904379-1.493939 3.0348442-1.0354687.6444063-2.3471533.6444063-3.3826221 0s-1.6147758-1.8212325-1.4939389-3.0348442zm4.9995 0c0-1.464-.6585-2.3205-1.812-2.3205-1.1595 0-1.8105.8565-1.8105 2.3205 0 1.476.651 2.325 1.8105 2.325 1.155 0 1.812-.855 1.812-2.325zm2.7735 1.47c0-1.215.906-1.917 2.514-2.016l1.83-.105v-.5835c0-.7125-.4725-1.116-1.383-1.116-.7455 0-1.26.273-1.4085.75h-1.29c.135-1.1595 1.227-1.905 2.76-1.905 1.692 0 2.6475.8445 2.6475 2.271v4.6155h-1.2825v-.9495h-.105c-.435951.6934108-1.211318 1.0985731-2.0295 1.0605-.573524.0597865-1.145561-.1259402-1.574579-.5112281-.4290189-.3852879-.6749409-.9341439-.676921-1.5107719zm4.3425-.576v-.5655l-1.65.105c-.93.063-1.35.3795-1.35.975 0 .6075.5265.96 1.251.96.428907.0432528.857032-.0891684 1.186618-.3670266.329586-.2778584.53249-.6774287.562382-1.1074734zm3.0795-.894c0-2.1345 1.098-3.486 2.805-3.486.861259-.0391949 1.667703.4224651 2.07 1.185h.1005v-3.7095h1.332v9.39h-1.2765v-1.065h-.105c-.433454.7566907-1.251071 1.2102807-2.1225 1.1775-1.7175 0-2.8035-1.3515-2.8035-3.492zm1.377 0c0 1.4325.675 2.295 1.8045 2.295 1.125 0 1.818-.8745 1.818-2.289 0-1.407-.702-2.295-1.818-2.295-1.122 0-1.8045.87-1.8045 2.289zm10.446 0c-.114576-1.209918.466238-2.3802875 1.499103-3.0207708 1.032865-.6404834 2.339429-.6404834 3.372294 0 1.032865.6404833 1.613679 1.8108528 1.499103 3.0207708.120837 1.2136117-.45847 2.3904379-1.493939 3.0348442s-2.347153.6444063-3.382622 0-1.614776-1.8212325-1.493939-3.0348442zm4.9995 0c0-1.464-.657-2.3205-1.812-2.3205-1.158 0-1.8105.8565-1.8105 2.3205 0 1.476.6525 2.325 1.8105 2.325 1.155 0 1.812-.855 1.812-2.325zm3.1605-3.3735h1.2825v1.0725h.099c.346568-.7899995 1.156179-1.2731157 2.016-1.203.665819-.0500117 1.318261.2054062 1.773165.6941581s.662921 1.1578172.565335 1.8183419v4.3725h-1.3335v-4.038c0-1.086-.471-1.626-1.458-1.626-.451459-.0209031-.889545.1563394-1.199462.4852834-.309916.3289442-.460772.7768014-.413038 1.2262166v3.9525h-1.3335zm13.2675-1.6815v1.7115h1.464v1.1235h-1.464v3.4725c0 .708.291 1.0185.9555 1.0185.169962-.0007817.339741-.0112989.5085-.0315v1.11c-.239657.0431692-.482501.0662494-.726.069-1.482 0-2.0715-.522-2.0715-1.824v-3.8145h-1.0725v-1.1235h1.0725v-1.7115zm3.285-.9555h1.32v3.7215h.105c.36367-.7969715 1.187895-1.2804689 2.061-1.209.661895-.0358926 1.305313.2252668 1.754947.7123216.449634.4870547.658633 1.1492565.570053 1.8061784v4.3605h-1.3335v-4.032c0-1.08-.5025-1.626-1.4445-1.626-.463915-.0381261-.920995.1305142-1.248979.4608123-.327984.3302979-.493407.7885527-.452021 1.2521877v3.945h-1.332zm13.584 7.5675c-.373518 1.2735162-1.60548 2.0967199-2.925 1.9545-.901181.024406-1.767473-.3488433-2.368713-1.0205802-.601241-.6717368-.876552-1.5739457-.752787-2.4669198-.119558-.8948009.15489-1.797467.752284-2.4742844.597396-.6768174 1.458995-1.061233 2.361716-1.0537156 1.8795 0 3.0135 1.284 3.0135 3.405v.465h-4.77v.075c-.042324.501438.128976.9974463.471721 1.3658979.342747.3684517.825093.5751138 1.328279.5691021.65148.0771622 1.285182-.2462036 1.605-.819zm-4.689-2.1765h3.4125c.034444-.4587393-.126683-.9106557-.44358-1.2441276-.316899-.3334721-.760022-.5174066-1.21992-.5063724-.465849-.0057018-.914264.176943-1.243553.5065138-.329289.329571-.511548.7781422-.505447 1.2439862z" fill="#fff"/></g></svg>