<svg height="20" viewBox="0 0 24 20" width="24" xmlns="http://www.w3.org/2000/svg"><path d="m23.3571429 2.9787234h-22.71428576c-.35501785 0-.64285714-.28579787-.64285714-.63829787v-1.70212766c0-.3525.28783929-.63829787.64285714-.63829787h22.71428576c.3550178 0 .6428571.28579787.6428571.63829787v1.70212766c0 .3525-.2878393.63829787-.6428571.63829787zm0 8.5106383h-22.71428576c-.35501785 0-.64285714-.2857979-.64285714-.6382979v-1.70212763c0-.3525.28783929-.63829787.64285714-.63829787h22.71428576c.3550178 0 .6428571.28579787.6428571.63829787v1.70212763c0 .3525-.2878393.6382979-.6428571.6382979zm0 8.5106383h-22.71428576c-.35501785 0-.64285714-.2857979-.64285714-.6382979v-1.7021276c0-.3525.28783929-.6382979.64285714-.6382979h22.71428576c.3550178 0 .6428571.2857979.6428571.6382979v1.7021276c0 .3525-.2878393.6382979-.6428571.6382979z" fill="#212b35"/></svg>