<svg height="80" viewBox="0 0 80 80" width="80" xmlns="http://www.w3.org/2000/svg"><g style="stroke:#4eb8e7;stroke-width:2.5;fill:none;fill-rule:evenodd;stroke-linecap:round;stroke-linejoin:round"><path d="m75 4.5c-2.5-2.5-18.75 1.25-28.75 11.25s-21.25 31.25-21.25 31.25l7.5 7.5s21.25-11.25 31.25-21.25 13.75-26.25 11.25-28.75z" fill="#4eb8e7" fill-opacity=".2"/><path d="m34.36625 31.25h-13.11625l-15 12.5h20.7225z"/><path d="m48.75 45v13.11625l-12.5 15v-20.7225z"/><path d="m21.25 58.75 20-20z"/><path d="m63.75 21.25c0 2.76125-2.23875 5-5 5s-5-2.23875-5-5 2.23875-5 5-5 5 2.23875 5 5z" fill="#fff"/><path d="m28.75 58.75c0 13.75-25 17.5-25 17.5s3.75-25 17.5-25"/></g></svg>