<svg height="80" viewBox="0 0 80 80" width="80" xmlns="http://www.w3.org/2000/svg"><g style="stroke:#4eb8e7;stroke-width:2.5;fill:none;fill-rule:evenodd;stroke-linecap:round;stroke-linejoin:round"><path d="m38.75 8.75c-17.94875 0-32.5 14.55125-32.5 32.5s14.55125 32.5 32.5 32.5 32.5-14.55125 32.5-32.5-14.55125-32.5-32.5-32.5z"/><path d="m61.25 41.25c0 12.42625-10.07375 22.5-22.5 22.5s-22.5-10.07375-22.5-22.5 10.07375-22.5 22.5-22.5 22.5 10.07375 22.5 22.5z" fill="#4eb8e7" fill-opacity=".2"/><path d="m51.25 41.25c0 6.90375-5.59625 12.5-12.5 12.5s-12.5-5.59625-12.5-12.5 5.59625-12.5 12.5-12.5 12.5 5.59625 12.5 12.5z" fill="#fff"/><path d="m38.75 43.75c-1.38 0-2.5-1.12-2.5-2.5s1.12-2.5 2.5-2.5 2.5 1.12 2.5 2.5-1.12 2.5-2.5 2.5z"/></g></svg>