<svg height="76" viewBox="0 0 200 76" width="200" xmlns="http://www.w3.org/2000/svg"><g fill="none" fill-rule="evenodd"><path d="m0-21h200v118h-200z" fill="#d8d8d8" opacity="0"/><path d="m1.37647059 31.5712419c-.25359477 0-.45490196.1960784-.4875817.4758169l-.88888889 6.751634.88888889 6.6352941c.03267974.2797385.23398693.4745098.4875817.4745098.24575163 0 .44575163-.193464.48496731-.4718954v-.0013071.0013071l1.05359478-6.6379085-1.05359478-6.7529411c-.03790849-.2784314-.24052287-.4745098-.48496731-.4745098zm4.9986928-3.688889c-.04183005-.290196-.2496732-.4901961-.50588234-.4901961-.25751634 0-.47058824.2065361-.50588236.4901961 0 .0026145-1.19477124 10.9163399-1.19477124 10.9163399l1.19477124 10.6745098c.03398693.2862745.24705883.4928105.50588236.4928105.25490196 0 .4627451-.2013072.50457516-.4901961l1.35947712-10.6771242zm18.82875811-10.069281c-.4901961 0-.8954248.4013072-.9189541.9111112l-.9516341 20.08366.9516341 12.979085c.0248366.5071895.428758.9071895.9189541.9071895.4875817 0 .8915033-.4013071.9202615-.909804v.0039218l1.0758169-12.9803923-1.0758169-20.08366c-.0287582-.509804-.4326798-.9111112-.9202615-.9111112zm-9.745098 6.9803921c-.3764706 0-.6836601.3006536-.7137255.7019608l-1.0718954 13.3071895 1.0718954 12.8745099c.0287582.3986927.3372549.6993464.7137255.6993464.372549 0 .6797386-.3006537.7124183-.6993464l1.2183007-12.8745099-1.2183007-13.3098039c-.0326797-.3986928-.3398693-.6993464-.7124183-.6993464zm19.6483661 27.8993465c.607843 0 1.1019607-.4901961 1.1267973-1.1176471l.9333334-12.7607843-.9320262-26.7385621c-.0248365-.627451-.5189542-1.1176471-1.1267974-1.1176471-.6130719 0-1.1084966.4915033-1.1281045 1.1189543 0 .0013072-.827451 26.7359477-.827451 26.7359477l.827451 12.766013c.0196079.6222222.5150326 1.1137256 1.1267974 1.1137256zm20.2745098.0601306c.8366012 0 1.5267972-.6888887 1.5424835-1.5359476v.0091502-.0091502l.6509805-12.3947712-.6509805-30.88104583c-.014379-.84575163-.7058823-1.53594771-1.5424835-1.53594771-.8379086 0-1.5294118.68888889-1.5424837 1.5372549l-.5816993 30.86928094c0 .0196079.5816993 12.413072.5816993 12.413072.0130719.8392158.7058824 1.5281045 1.5424837 1.5281045zm-10.2143792-.048366c.7281046 0 1.3150327-.5843137 1.3346406-1.3294117v.0091504l.7921568-12.5673203-.793464-26.9320262c-.0196078-.745098-.6065359-1.3281046-1.3346405-1.3281046-.7333334 0-1.3202615.5830066-1.3359478 1.3281046l-.7045751 26.9333333.7058824 12.5647059c.0156863.7372549.6026144 1.3215686 1.3359476 1.3215686zm-24.8549018-.1176469c.4326797 0 .7830065-.3464053.8156862-.8026146l1.1477125-12.9816993-1.1477125-12.3490195c-.0313726-.4562091-.3816994-.8000001-.8156862-.8000001-.4392158 0-.7895425.3464052-.8169936.8052288l-1.0104575 12.3437908 1.0104575 12.9803922c.0287582.4575164.3777778.8039217.8169936.8039217zm-9.667974-.7111112c.3163399 0 .5725491-.2496732.6091504-.5947712l1.2888889-12.4810457-1.2875817-12.9516341c-.0379085-.3464052-.2941177-.5960785-.6104576-.5960785-.3202614 0-.5764705.2509806-.6091503.5960785 0 .0013071-1.13464051 12.9516341-1.13464051 12.9516341l1.13464051 12.4784313c.0313726.3464052.2875817.5973856.6091503.5973856zm39.6104576-40.4392157c-.7908498 0-1.4248366.6287582-1.4405229 1.4339869l-.6431373 25.9490197.6431373 12.4862744c.0156863.7947713.648366 1.4235295 1.4405229 1.4235295.7895425 0 1.4196078-.6274511 1.4379085-1.4326799v.0104577l.7215686-12.4862746-.7215686-25.9529411c-.0183007-.8026144-.648366-1.4313726-1.4379085-1.4313726zm-20.1176471 41.282353c.5464052 0 .9973857-.4457517 1.0235295-1.0143791l1.0039215-12.8928106-1.0039215-24.6771241c-.0274511-.5699346-.4771243-1.0143791-1.0235295-1.0143791-.551634 0-1.0013071.4457517-1.0248367 1.0143791 0 .0013072-.8888888 24.6771241-.8888888 24.6771241l.8901961 12.8980393c.0222223.5633987.4718954 1.0091504 1.0235294 1.0091504zm11.2104576-1.2169936v-.0065359l.8627451-12.6797384-.8627451-27.6392158c-.0209151-.6862745-.5620915-1.22483661-1.2300655-1.22483661-.6718954 0-1.2130719.53725491-1.2313724 1.22483661l-.7660131 27.6379085.7673202 12.6862745c.0183007.6797386.5594771 1.2169934 1.2300653 1.2169934.6692811 0 1.2078432-.5372548 1.2300655-1.2209149zm65.2522875-28.6183006c-2.048366 0-4.002614.4143791-5.783007 1.1607844-1.1895419-13.4745099-12.4888884-24.0444445-26.271895-24.0444445-3.372549 0-6.6601308.66405229-9.5633986 1.7869281-1.1281046.43660131-1.4287583.88627451-1.4392158 1.75816994v47.45098046c.0117648.9150326.7215687 1.677124 1.6143791 1.7673203.0379085.0039215 41.1751633.0248364 41.4418303.0248364 8.256209 0 14.950327-6.6941176 14.950327-14.951634 0-8.2575162-6.692811-14.9529411-14.94902-14.9529411zm-46.1137254-19.38039212c-.8980392 0-1.6352942.73725489-1.6483661 1.64313726l-.6745097 33.67973856.6758168 12.2235293c.0117648.8928106.7490198 1.6287583 1.647059 1.6287583.8954248 0 1.6326796-.7359477 1.6457515-1.6418302v.0143792l.7333334-12.2248366-.7333334-33.68235296c-.0130719-.90326797-.7503267-1.64052286-1.6457515-1.64052286zm-48.413072 58.78954252c-1.7686274-.4156863-2.24705881-.6379085-2.24705881-1.3385622 0-.4941177.39869281-1.0052287 1.59346401-1.0052287 1.0209151 0 1.8183007.414379 2.5346406 1.1477125l1.6091503-1.5607845c-1.0522876-1.0993462-2.3267974-1.7529411-4.0627451-1.7529411-2.20130719 0-3.98562092 1.2431372-3.98562092 3.267974 0 2.1986927 1.43529411 2.8522876 3.49019612 3.3294116 2.1032679.4771243 2.4862745.7973857 2.4862745 1.5150327 0 .8444446-.6235294 1.2117647-1.9437909 1.2117647-1.0679738 0-2.07189541-.366013-2.85359475-1.2771241l-1.60915034 1.435294c.84444445 1.2431374 2.47189544 2.0235295 4.33464049 2.0235295 3.0457517 0 4.3843138-1.433987 4.3843138-3.5529411 0-2.4235296-1.9607844-3.0287582-3.730719-3.4431373zm10.2666668-4.509804c-3.0431374 0-4.8431374 2.35817-4.8431374 5.7529412s1.8 5.7516341 4.8431374 5.7516341c3.0431371 0 4.8457515-2.3568629 4.8457515-5.7516341s-1.8026144-5.7529412-4.8457515-5.7529412zm0 9.2915033c-1.8 0-2.5503269-1.5464052-2.5503269-3.537255 0-1.9921567.7503269-3.5385619 2.5503269-3.5385619 1.8026142 0 2.5503266 1.5464052 2.5503266 3.5385619 0 1.9908498-.7477124 3.537255-2.5503266 3.537255zm13.8509802-2.8522876c0 1.7843137-.8784312 2.8849673-2.2954248 2.8849673-1.4183006 0-2.2784313-1.1320261-2.2784313-2.9163399v-6.2339869h-2.2326798v6.2653595c0 3.2496733 1.8183007 5.0666667 4.5111111 5.0666667 2.8366013 0 4.5267974-1.8653594 4.5267974-5.0980393v-6.2339869h-2.2313726zm11.8562093-1.5464052c0 .6222222.0313724 2.0235295.0313724 2.4379085-.1437907-.2875817-.5098038-.8444444-.7803921-1.2601307l-3.9542483-5.8980392h-2.1346405v11.1581698h2.1999999v-4.9098039c0-.6222222-.0313726-2.0235293-.0313726-2.4379085.1424838.2862746.5111112.8444446.7803923 1.2601308l4.0967319 6.0875816h1.9921569v-11.1581698h-2.1999999zm8.5581699-4.7189543h-3.4901962v11.15817h3.3294119c2.869281 0 5.7071896-1.6588235 5.7071896-5.579085 0-4.0810458-2.3594773-5.579085-5.5464053-5.579085zm-.1607843 8.9908497h-1.0980392v-6.8222222h1.1790849c2.359477 0 3.3320262 1.130719 3.3320262 3.4104575 0 2.0405229-1.0692812 3.4117647-3.4130719 3.4117647zm12.607843-6.9503268c1.0039216 0 1.6418301.4470589 2.0405229 1.2117648l2.0718955-.9555556c-.7019608-1.4496733-1.9777777-2.4705883-4.0810458-2.4705883-2.9137255 0-4.9555555 2.35817-4.9555555 5.7529412 0 3.5215687 1.959477 5.7516341 4.8758169 5.7516341 2.0248366 0 3.3633987-.9398693 4.1281047-2.5176472l-1.8797386-1.1163398c-.5895425.9895424-1.1803922 1.4196077-2.1843138 1.4196077-1.6732025 0-2.6457515-1.5307189-2.6457515-3.5372548-.0013073-2.0705882.9581698-3.5385621 2.6300652-3.5385621zm8.2758171-2.0405229h-2.2313726v11.15817h6.7058824v-2.2013072h-4.4745098zm10.3529411-.1738562c-3.0457516 0-4.8457516 2.35817-4.8457516 5.7529412s1.8 5.7516341 4.8457516 5.7516341c3.0431374 0 4.8444445-2.3568629 4.8444445-5.7516341s-1.8013071-5.7529412-4.8444445-5.7529412zm0 9.2915033c-1.8026144 0-2.5503268-1.5464052-2.5503268-3.537255 0-1.9921567.7477124-3.5385619 2.5503268-3.5385619 1.7986929 0 2.5477124 1.5464052 2.5477124 3.5385619 0 1.9908498-.7490195 3.537255-2.5477124 3.537255zm13.8483663-2.8522876c0 1.7843137-.87451 2.8849673-2.2928106 2.8849673-1.4209151 0-2.2797387-1.1320261-2.2797387-2.9163399v-6.2339869h-2.2313725v6.2653595c0 3.2496733 1.8169934 5.0666667 4.5111112 5.0666667 2.8366016 0 4.5254896-1.8653594 4.5254896-5.0980393v-6.2339869h-2.232679zm8.511111-6.2653595h-3.488889v11.15817h3.329412c2.870588 0 5.705882-1.6588235 5.705882-5.579085 0-4.0810458-2.35817-5.579085-5.546405-5.579085zm-.159477 8.9908497h-1.099347v-6.8222222h1.180393c2.356862 0 3.329411 1.130719 3.329411 3.4104575 0 2.0405229-1.067974 3.4117647-3.410457 3.4117647z" fill="#353e4e" fill-rule="nonzero" transform="translate(38.823529 2.529412)"/></g></svg>