<svg height="76" viewBox="0 0 200 76" width="200" xmlns="http://www.w3.org/2000/svg"><g fill="none" fill-rule="evenodd"><path d="m0-21h200v118h-200z" fill="#d8d8d8" opacity="0"/><g fill-rule="nonzero" transform="translate(20 11.941176)"><path d="m47.8932568.27374462h-43.11908177c-2.63672884 0-4.77417503 2.13744619-4.77417503 4.77417503v43.11908175c0 2.6367289 2.13744619 4.7741751 4.77417503 4.7741751h43.11908177c2.6367288 0 4.774175-2.1374462 4.774175-4.7741751v-43.11908175c0-2.63672884-2.1374462-4.77417503-4.774175-4.77417503" fill="#353e4e"/><path d="m102.530273 41.1606886h5.041463v-21.9951219h-5.041463zm46.739741-22.4539454c-3.416212 0-5.457245 1.7913917-6.873744 3.8741751v-3.4153516h-5.040172v21.9951219h5.040172v-12.414921c0-3.415782 2.041463-5.4568149 4.957532-5.4568149 3 0 4.707461 1.9575323 4.707461 5.3733141v12.4984218h5.040602v-13.997561c0-5.1236728-2.874749-8.4563844-7.831851-8.4563844zm-26.660401 18.5797704c-3.916356 0-6.707174-3.2083214-6.707174-7.1242468 0-3.8733141 2.582496-7.0403156 6.623673-7.0403156 3.957245 0 6.748924 3.2074606 6.748924 7.1242468 0 3.8737445-2.583357 7.0403156-6.665423 7.0403156zm0-18.5797704c-6.748494 0-11.748207 5.2063127-11.748207 11.5394548 0 6.2896699 4.957532 11.4137734 11.664706 11.4137734 6.791105 0 11.790387-5.2071736 11.790387-11.4977046 0-6.3314204-4.958823-11.4555236-11.706886-11.4555236zm-62.4012916 16.6209469-5.915208-16.1621234h-5.4159254l9.0400286 22.1608322h4.5408895l8.997848-22.1608322h-5.290244zm32.158967-7.1642755c-2.5833572-.8345767-4.9583932-1.5004304-4.9583932-3.0826399v-.0839312c0-1.2912481 1.1246773-2.207604 3.08264-2.207604.9550932 0 2.0238164.2186515 3.1286943.6064564l-.0008608-.0025825s.0111909.005165.0318508.014634c.0951219.0335725.1915352.0714491.2879483.1076042.7971306.2522238 2.9479197.5892395 4.7604018-2.2252512-2.3337159-1.5421808-5.3319942-2.5007173-8.0832138-2.5007173-4.3734577 0-7.83099 2.5411765-7.83099 6.707604v.0835008c0 4.207317 3.623673 5.5403156 6.8733143 6.4571017 2.5833572.7911048 4.9166427 1.3743185 4.9166427 3.0822095v.08264c0 1.4586799-1.2503587 2.3750357-3.4166427 2.3750357-1.4401722 0-3.0172166-.3800573-4.5890961-1.1208033-.4523674-.1906744-2.8050215-.9951221-4.8167862 1.8658537 2.7408894 2.140459 6.1747489 3.2543758 9.2814921 3.2543758 4.5809181 0 8.1645623-2.2898135 8.1645623-6.915495v-.0830704c0-3.9568148-3.6241033-5.4154948-6.8315638-6.414921zm-18.4131994 12.997274h5.0406025v-21.9951219h-5.0406025z" fill="#353e4e"/><g fill="#fffffe"><path d="m17.6014347 16.8443329c1.7509327 0 3.2173602-1.3721665 3.2173602-3.1708752 0-1.7969871-1.4664275-3.1691535-3.2173602-3.1691535-1.7505021 0-3.2169297 1.3721664-3.2169297 3.1691535 0 1.7987087 1.4664276 3.1708752 3.2169297 3.1708752"/><path d="m10.9304161 33.8216644c-.1889527.8044475-.2840746 1.6730271-.2840746 2.3814921 0 2.792109 1.5142037 4.6454806 4.7315638 4.6454806 2.6685797 0 4.8318508-1.584792 6.3890961-4.1431852l-.9512194 3.8169297h5.2992826l3.0279769-12.1463414c.7571019-3.0753228 2.2239599-4.6713057 4.4479197-4.6713057 1.7505023 0 2.838594 1.0885223 2.838594 2.8855094 0 .5208034-.0473457 1.0880917-.2362984 1.7035867l-1.56198 5.582927c-.2362983.8044475-.3305594 1.6093256-.3305594 2.3655667 0 2.6505021 1.5606886 4.5895265 4.8253945 4.5895265 2.7916786 0 5.015208-1.7974175 6.2457676-6.1032999l-2.0819226-.8035868c-1.040746 2.8846485-1.9398852 3.4063127-2.6492108 3.4063127-.7101865 0-1.0889527-.4730271-1.0889527-1.4186513 0-.4256814.095122-.8982783.2367289-1.4672883l1.5142036-5.4391678c.3787662-1.277475.5208035-2.4098997.5208035-3.4506458 0-4.068723-2.4606886-6.192396-5.4413199-6.192396-2.7912483 0-5.6302726 2.5179341-7.0497849 5.1675754l1.0407461-4.7560975h-8.0905308l-1.1354377 4.1892396h3.785079l-2.330703 9.3322812c-1.8305596 4.0691534-5.1929699 4.1350071-5.6147776 4.0403156-.6929699-.156241-1.135868-.4192253-1.135868-1.3192253 0-.5199425.0942611-1.2658537.3309899-2.1654232l3.5487805-14.0771879h-8.9892396l-1.13586799 4.1892396h3.73773309z"/></g></g></g></svg>